<?xml version="1.0" standalone="no"?>
<!DOCTYPE svg PUBLIC "-//W3C//DTD SVG 20010904//EN"
 "http://www.w3.org/TR/2001/REC-SVG-20010904/DTD/svg10.dtd">
<svg version="1.0" xmlns="http://www.w3.org/2000/svg"
 width="70px" height="70px" viewBox="0 0 400.000000 400.000000"
 preserveAspectRatio="xMidYMid meet">
<metadata>
Created by potrace 1.16, written by Peter Selinger 2001-2019
</metadata>
<g transform="translate(0.000000,400.000000) scale(0.100000,-0.100000)"
fill="#000000" stroke="none">
<path d="M1741 3869 c-197 -26 -447 -108 -616 -202 -369 -203 -589 -423 -792
-792 -101 -182 -178 -428 -203 -644 -18 -154 -8 -457 20 -596 95 -478 395
-929 796 -1196 297 -198 623 -303 979 -316 264 -9 473 21 700 102 287 101 488
228 705 445 217 217 344 418 445 705 81 227 111 436 102 700 -13 356 -118 682
-316 979 -267 401 -717 700 -1196 797 -89 17 -151 22 -330 25 -121 1 -253 -2
-294 -7z m434 -119 c213 -25 421 -88 622 -188 473 -238 824 -701 923 -1218 95
-500 -22 -1015 -317 -1399 -73 -95 -241 -264 -338 -340 -387 -302 -903 -421
-1409 -325 -517 99 -980 450 -1218 923 -224 448 -257 916 -97 1366 163 454
458 791 874 998 309 154 647 218 960 183z"/>
<path d="M1976 3334 c-9 -8 -16 -20 -16 -25 0 -24 -152 -946 -158 -961 -5 -12
-90 115 -317 472 -287 454 -312 490 -338 490 -16 0 -30 -7 -34 -16 -7 -20 26
-2363 35 -2429 6 -44 10 -50 33 -53 14 -2 30 3 36 10 7 9 4 373 -9 1123 -10
611 -17 1126 -16 1147 3 39 -9 57 491 -734 l99 -156 -112 -688 c-78 -477 -109
-693 -103 -704 6 -8 22 -16 36 -18 20 -3 29 2 37 20 5 13 55 302 110 643 55
341 101 623 103 627 2 6 765 -1191 795 -1248 14 -27 69 -34 78 -11 2 7 -4 521
-16 1140 -11 620 -20 1174 -20 1231 0 82 -3 108 -16 120 -17 18 -32 20 -53 7
-12 -8 -12 -153 4 -1055 10 -576 16 -1049 14 -1051 -3 -2 -134 473 -293 1055
-159 582 -294 1064 -299 1069 -16 16 -53 13 -71 -5z m327 -1247 c145 -532 261
-964 257 -960 -37 43 -684 1083 -684 1098 2 26 133 832 141 865 l6 25 8 -30
c5 -16 127 -466 272 -998z"/>
</g>
</svg>
